<?xml version="1.0"?>
<svg xmlns="http://www.w3.org/2000/svg" xmlns:xlink="http://www.w3.org/1999/xlink" version="1.1" id="Capa_1" x="0px" y="0px" viewBox="0 0 474.906 474.906" style="enable-background:new 0 0 474.906 474.906;" xml:space="preserve" width="512px" height="512px" class=""><g><g>
	<polygon style="fill:#FFFFFF" points="459.233,119.902 292.049,261.486 133.747,119.902  " data-original="#4DCFE0" class="" data-old_color="#4DCFE0"/>
	<polygon style="fill:#FFFFFF" points="459.233,119.902 459.233,355.004 133.747,355.004 133.747,119.902 292.049,261.486  " data-original="#4DCFE0" class="" data-old_color="#4DCFE0"/>
</g><g>
	<path style="fill:#000000" d="M459.233,104.229H133.747c-8.882,0-15.673,6.792-15.673,15.673v235.102   c0,8.882,6.792,15.673,15.673,15.673h325.486c8.882,0,15.673-6.792,15.673-15.673V119.902   C474.906,111.02,468.114,104.229,459.233,104.229z M416.392,135.576l-123.82,105.012L175.02,135.576H416.392z M149.42,339.331   V154.906L281.6,272.98c3.135,2.612,6.792,4.18,10.449,4.18c3.657,0,7.314-1.045,9.927-3.657l141.584-119.641v185.469H149.42z" data-original="#3A2C51" class="active-path" data-old_color="#3A2C51"/>
	<path style="fill:#000000" d="M88.816,253.127H61.649c-8.882,0-15.673-6.792-15.673-15.673s6.792-15.673,15.673-15.673h27.167   c8.882,0,15.673,6.792,15.673,15.673S97.698,253.127,88.816,253.127z" data-original="#3A2C51" class="active-path" data-old_color="#3A2C51"/>
	<path style="fill:#000000" d="M88.816,316.865H15.673C6.792,316.865,0,310.073,0,301.192c0-8.882,6.792-15.673,15.673-15.673   h73.143c8.882,0,15.673,6.792,15.673,15.673C104.49,310.073,97.698,316.865,88.816,316.865z" data-original="#3A2C51" class="active-path" data-old_color="#3A2C51"/>
	<path style="fill:#000000" d="M88.816,189.388H15.673C6.792,189.388,0,182.596,0,173.714s6.792-15.673,15.673-15.673h73.143   c8.882,0,15.673,6.792,15.673,15.673S97.698,189.388,88.816,189.388z" data-original="#3A2C51" class="active-path" data-old_color="#3A2C51"/>
</g></g> </svg>
